<svg width="53" height="95" viewBox="0 0 53 95" xmlns="http://www.w3.org/2000/svg">
<path d="M51.4012 28.649C53.5454 19.2979 50.8056 9.11298 41.8714 3.5738C36.6896 0.297937 29.8997 -0.833724 23.8244 0.595743C5.95608 4.70546 -6.13483 28.4704 3.21627 43.4798C6.49213 48.7807 12.0313 52.3544 18.1065 54.9751H18.1661C19.3573 55.5111 20.5486 55.9876 21.7398 56.4641C21.5015 56.9406 21.2633 57.4766 21.025 58.0127C20.9655 58.2509 20.8464 58.4892 20.7272 58.7274C17.7492 66.3512 13.7586 75.1067 13.9968 83.3857C13.6395 86.8998 13.3417 90.4139 12.9843 93.8685C12.8652 95.4171 16.558 94.7619 16.6771 93.4515C16.9749 90.1161 17.2727 86.7211 17.6301 83.3857H21.6802C21.0846 86.7211 20.5486 90.0566 20.3103 93.392C20.2507 94.1067 21.3228 94.0472 21.7993 93.928C22.2758 93.8685 23.884 93.5111 23.884 92.8559C24.1222 89.6396 24.5987 86.5424 25.1943 83.3857H27.8746C27.3981 87.0785 27.1003 90.7713 27.279 94.5236C27.3385 95.4766 30.9718 94.8214 30.9122 93.5111C30.7931 90.1161 30.9718 86.7807 31.3887 83.3857H34.0094C34.2476 87.0785 34.605 90.7713 35.3197 94.4045C35.4984 95.3575 39.1912 94.4641 38.9529 93.392C38.0595 88.5675 37.5235 83.7431 37.4639 78.7995C37.6426 75.0471 38.7147 69.3293 40.025 63.8497C40.1442 63.2541 40.3228 62.718 40.442 62.1224C40.5015 62.1224 40.5611 62.1224 40.6802 62.1224C40.8589 62.182 40.978 62.1819 41.2163 62.1819C41.3354 62.1819 41.4545 62.2415 41.5736 62.2415C41.6332 62.2415 41.6928 62.2415 41.7523 62.3011C42.3479 62.4202 43.0031 62.4202 43.5987 62.1819C44.6708 61.7055 45.1473 60.5738 45.5047 59.6208C46.7554 55.928 47.5893 52.1757 47.9467 48.3638C48.0062 47.2917 48.0658 46.1004 47.2915 45.2666C46.9341 44.8497 46.3981 44.6114 45.862 44.4923C45.8025 44.4923 45.6833 44.4327 45.5642 44.3732C45.7429 43.8967 45.9216 43.4798 46.1598 43.0033C48.0658 38.2979 50.2696 33.533 51.4012 28.5895V28.649ZM17.5109 24.1224C18.7617 12.9845 37.1065 14.95 34.0094 27.9343C33.2351 31.1506 31.9843 34.3669 30.6144 37.5832C30.4953 38.0001 30.3166 38.3575 30.1379 38.7744C29.721 38.5957 29.304 38.4766 28.8871 38.2384C25.7304 36.6302 22.4545 34.486 20.2507 31.8058C18.4044 29.6616 17.2131 26.8622 17.5109 24.1224Z" fill="current"/>
<path d="M46.1598 43.0626C45.9216 43.5391 45.7429 43.956 45.5642 44.4325C39.1316 42.6457 30.7335 39.1316 30.3762 38.9529C30.257 38.8934 30.1975 38.8338 30.1379 38.7742C29.9592 38.5955 29.8997 38.2382 29.9592 37.9999C30.0783 37.7617 30.3762 37.583 30.6144 37.583C30.7335 37.583 30.8526 37.583 30.9718 37.583C31.0313 37.583 39.7272 41.2758 46.1598 43.0031V43.0626Z" fill="currentColor"/>
<path d="M42.2884 63.3729C42.2884 63.8493 41.8119 64.1472 41.3354 64.1472H41.1567C40.7994 64.0876 40.3824 63.9685 40.0251 63.8493C33.7116 62.4199 25.4922 59.5609 21.0251 58.0124C21.2633 57.4763 21.5016 56.9402 21.7398 56.4638C20.5486 55.9873 19.3574 55.5108 18.1661 54.9747C18.2853 54.9747 18.4044 54.9747 18.5235 55.0343C18.6426 55.0343 32.6395 60.3948 41.5737 62.3008C41.6332 62.3008 41.6928 62.3008 41.7523 62.3603C42.1097 62.4794 42.4075 62.9559 42.2884 63.3729Z" fill="currentColor"/>
</svg>
