<svg width="83" height="90" viewBox="0 0 83 90" xmlns="http://www.w3.org/2000/svg">
<g clip-path="url(#clip0_480_1550)">
<path d="M21.5304 43.6077C15.5138 41.768 0 41.4696 0 41.4696C0 19.1934 17.6022 0.994475 39.6298 0C21.232 11.6354 21.3315 38.4365 21.5304 43.6077Z" fill="current"/>
<path d="M57.2818 44.3039V44.4033H23.5194V44.3039C23.5194 44.0056 21.3316 13.1271 41.4697 1.14368C59.2211 13.0774 57.3316 44.0056 57.2818 44.3039Z" fill="current"/>
<path d="M59.2708 44.2541C59.4697 41.1713 60.6631 12.3315 43.2598 0C65.3868 0.895028 82.9891 19.1436 82.9891 41.4696L59.2708 44.2541Z" fill="current"/>
<path d="M43.2597 34.8563H39.7791V72.3978H43.2597V34.8563Z" fill="current"/>
<path d="M35.9005 90C31.4253 90 27.8452 86.3702 27.8452 81.9448V77.8177C27.8452 76.4254 28.9391 75.3315 30.3314 75.3315C31.7237 75.3315 32.8176 76.4254 32.8176 77.8177V81.9448C32.8176 83.6354 34.2099 85.0276 35.9005 85.0276C37.5911 85.0276 38.9833 83.6354 38.9833 81.9448V63.2486C38.9833 61.8564 40.0773 60.7625 41.4695 60.7625C42.8618 60.7625 43.9557 61.8564 43.9557 63.2486V81.9448C43.9557 86.4199 40.3259 90 35.9005 90Z" fill="current"/>
</g>
<defs>
<clipPath id="clip0_480_1550">
<rect width="82.989" height="90" fill="white"/>
</clipPath>
</defs>
</svg>
