<svg width="85" height="45" viewBox="0 0 85 45" xmlns="http://www.w3.org/2000/svg">
<g clip-path="url(#clip0_480_1650)">
<path d="M84.5122 31.805C84.5122 39.0917 65.6035 44.9998 42.2812 44.9998C18.9588 44.9998 0 39.0917 0 31.805C0 26.7339 9.17847 22.3029 22.6703 20.0873C22.871 20.0873 23.0716 20.0381 23.2722 20.0381C23.4728 19.9888 23.7236 19.9396 23.9242 19.9396C29.4915 19.1026 35.7108 18.6103 42.2812 18.6103C48.8516 18.6103 55.0709 19.1026 60.6381 19.9396C60.8387 19.9396 61.0394 19.9888 61.24 20.0381C61.4908 20.0381 61.6914 20.0873 61.892 20.0873C75.3337 22.3521 84.5122 26.7339 84.5122 31.805Z" fill="current"/>
<path d="M61.24 20.0383V29.2943C61.24 32.5438 52.7637 35.2024 42.2812 35.2024C31.7987 35.2024 23.2722 32.5438 23.2722 29.2943V20.0383C23.2722 20.0383 23.7236 19.9398 23.9242 19.9398V16.5427C23.9242 7.43435 31.4476 0 40.6762 0H43.836C53.0646 0 60.6381 7.43435 60.6381 16.5427V19.9398C60.6381 19.9398 61.0394 19.9891 61.24 20.0383Z" fill="current"/>
<path d="M61.2401 20.0384C61.2401 20.0384 60.8388 19.9399 60.6382 19.9399V29.2944C60.6382 31.8054 53.0647 34.6117 42.2813 34.6117C31.4978 34.6117 23.9243 31.8054 23.9243 29.2944V19.9399C23.9243 19.9399 23.4729 19.9892 23.2723 20.0384C23.0717 20.0384 22.871 20.0876 22.6704 20.0876V29.2944C22.6704 33.5286 32.7517 35.8426 42.2813 35.8426C51.8108 35.8426 61.8921 33.5286 61.8921 29.2944V20.0876C61.8921 20.0876 61.4908 20.0384 61.2401 20.0384Z" fill="currentColor"/>
</g>
<defs>
<clipPath id="clip0_480_1650">
<rect width="85" height="45" fill="white"/>
</clipPath>
</defs>
</svg>
