<svg width="91" height="80" viewBox="0 0 91 80" xmlns="http://www.w3.org/2000/svg">
<g clip-path="url(#clip0_480_1274)">
<path d="M66.4407 24.6328C63.4125 20.7006 59.4351 13.2881 57.8531 0.40678C57.8531 0.271186 57.8531 0.135593 57.8531 0H53.695V6.55367C53.695 11.5706 49.8983 15.6836 45.1978 15.6836C40.4972 15.6836 36.7006 11.5706 36.7006 6.55367V0H32.5424C32.5424 0 32.5424 0.271186 32.5424 0.40678C30.9605 13.2429 26.9379 20.7006 23.9548 24.6328C21.9209 26.9379 20.2938 27.9774 20.2938 27.9774V80H70.1017V27.9774C70.1017 27.9774 68.4746 26.8927 66.4407 24.6328Z" fill="current"/>
<path d="M33.4915 14.5085L32.7232 0C32.7232 0 25.1751 0.316384 17.4915 6.46328L0 21.4237L14.9153 38.9153L32.4068 24L29.5141 20.6102L33.4915 14.5537V14.5085Z" fill="current"/>
<path d="M72.8136 6.46328C65.13 0.316384 57.582 0 57.582 0L56.8136 14.5085L60.791 20.565L57.8983 23.9548L75.3899 38.8701L90.3051 21.3785L72.8136 6.46328Z" fill="current"/>
<path d="M62.5989 24.226H51.5254C51.209 24.226 50.983 23.9548 50.983 23.6836C50.983 23.4124 51.2542 23.1412 51.5254 23.1412H62.5989C62.9152 23.1412 63.1412 23.4124 63.1412 23.6836C63.1412 23.9548 62.87 24.226 62.5989 24.226Z" fill="currentColor"/>
</g>
<defs>
<clipPath id="clip0_480_1274">
<rect width="90.3503" height="80" fill="white"/>
</clipPath>
</defs>
</svg>
